<svg xmlns="http://www.w3.org/2000/svg" viewBox="0 0 1154.15 374"><defs><linearGradient id="Degradado_sin_nombre_2" data-name="Degradado sin nombre 2" x1="87.23" y1="582.06" x2="90.74" y2="582.06" gradientTransform="matrix(106.54, 0, 0, -103.47, -9275.59, 60427.32)" gradientUnits="userSpaceOnUse"><stop offset="0" stop-color="#7be495"></stop><stop offset="0.5" stop-color="#56c596"></stop><stop offset="1" stop-color="#329d9c"></stop></linearGradient></defs><title>Logo</title><g><g><path d="M527.39,76.68c2.48-2.73,5-2.23,5.71,1.24,1.74,8.68-1.49,19.1-13.64,35.22-17.61,23.32-57.05,71.93-86.07,117.07-1.74,2.73-3.47,3.72-6.94,1.24-9.18-6.94-13.15-15.87-11.17-33.23,4.22-38.45,16.62-96.24,25.55-120,1.49-3.72,3.23-4.22,5.46-1.49,5.7,6.7,6.69,15.88,2.48,35-5.21,23.82-13.4,58.79-19.6,96.74C453,168.45,505.32,99.75,527.39,76.68Z" transform="translate(-17.85 -12.58)" fill="#2a4858"></path><path d="M521.94,224.51c20.58,1,38.69-18.85,49.36-35.22,1.24-2,3.22-2,4.21.25,1,2,.25,8.93-4.21,15.37-10.42,15.13-29.52,26.54-48.62,26.79-31.5.5-42.41-30.51-26.29-62.5s41.42-44.9,53.82-37.7c6.2,3.72,10.67,7.44,14.64,12.89,4.46,6,2.48,21.09-7.94,33.74-12.15,14.88-28.77,21.33-46.13,7.19C502.84,208.14,508.79,223.76,521.94,224.51Zm20.58-57c7.94-10.42,13.4-23.31,9.93-26-5.21-4.22-25.8,10.66-37.46,34.23-.74,1.48-1.49,3-2,4.21C525.16,187.55,535.33,176.89,542.52,167.46Z" transform="translate(-17.85 -12.58)" fill="#2a4858"></path><path d="M622.14,237.9c-13.64,33.24-31.25,72.68-51.34,80.61-5,2-9.92,1.24-14.39-5.21-5.21-7.44-9.67-16.12-5-30.75,7.19-22.32,28.52-37.45,53.08-46.88,2.48-5.46,4.71-11.41,7.19-17.11-7.19,7.19-15.87,12.4-25.05,12.4-22.82,0-27.28-31-7.19-60.77,19.34-28.77,39.43-39.93,52.08-39.93,9.93,0,14.89,7.69,14.64,16.37,3-5,5.7-9.43,8.18-13.64,2-3.48,4.47-3.73,6.2-1.49,3.72,4.46,5.71,15.13-.49,27.28-7.44,14.88-23.07,44.89-33.49,68.95a123.66,123.66,0,0,0,44.4-37.2c1.49-2,3.72-2,4.22.49.49,2.24-.75,7.69-5,14.39C660.58,220.54,642.73,230.46,622.14,237.9Zm-60.77,66.72c3.23,4.72,22.82-21.08,38.94-58.78C568.07,264.69,557.15,298.67,561.37,304.62Zm73.91-161.71c-7.68-.5-25.79,15.37-39.43,37-13.4,21.33-16.12,43.16-6.2,43.41,9.67.25,22.32-15.38,35-37.21C640.25,158.78,642.48,143.4,635.28,142.91Z" transform="translate(-17.85 -12.58)" fill="#2a4858"></path><path d="M714.9,236.91C701,270.15,683.4,310.08,662.81,318c-4.71,1.73-9.42,1.73-14.14-5.21-5-7.44-9.92-16.12-5-30.76,7.44-22.32,28.53-37.2,53.08-46.88,2.48-5.7,5-11.9,7.69-17.85-7.69,7.93-17.11,14.38-27,13.64-17.85-1.49-18.35-19.6-12.65-36,5.46-15.87,17.62-40.43,33.74-62.75,2-2.73,4.46-2.48,6.2,0,5.95,7.94,4.46,18.36-4.71,33-8.93,14.39-14.39,24.55-19.1,36.21-5,12.16-4.47,20.84,1.24,21.33,9.67.75,22.07-15.13,34.72-36.71,10.67-18.35,21.33-40.67,30-53.32,2.24-3.23,4-3.72,6.2-1.74,3.48,4.47,5.46,15.13-1,27.78-7.44,14.39-22.57,44.15-33,68.21A132.19,132.19,0,0,0,763,188.79c1.24-1.73,3.47-2,4,.5.5,2.23-.24,7.94-4.46,14.38C752.85,219.05,735.48,228.48,714.9,236.91Zm-61.27,67.47c3.23,4.71,23.57-22.33,38.94-58.79C660.33,264.19,649.17,298.17,653.63,304.38Z" transform="translate(-17.85 -12.58)" fill="#2a4858"></path><path d="M803.19,84.62c-.49-2,.25-3,2.73-3,20.59,1,46.88-6.2,60.77-6.2,10.67,0,17.11,5,20.34,12.65.74,2,.25,3.72-3,3.72-18.6-.25-36,4.71-51.09,7-8.68,14.13-20.34,34.23-32.49,56.55a124,124,0,0,1,16.61-2c12.41-.74,18.61,4.47,20.84,11.91.74,2.23.25,3.72-2.73,3.72-12.4-.25-31.5,3.47-45.64,7-9.42,18.35-18.6,36.95-25.79,53.57-1,2.48-2.48,2.48-4.22,1-4.71-4-7.19-11.9-2-27.28C765,181.35,791,132.74,812.87,97.27,807.16,94.54,804.43,89.58,803.19,84.62Z" transform="translate(-17.85 -12.58)" fill="#2a4858"></path><path d="M901.41,138c3-2,5-2.48,6.7-.5,4.71,5.21,10.67,16.12,3.47,24.31-11.16,12.65-23.31,28.27-27.28,41.17s-1,22.57,6.2,22.82c9.67.5,21.58-14.88,29.52-32.74,1-2,2.48-2.23,3.47-.25,1.24,2.73,1.49,8.68-1.24,15.38-5.71,14.38-20.09,24.8-33.24,24.31-17.86-.75-25-17.12-18.85-35.72,5.46-16.37,19.84-34,29.76-45.39-10.91,7.19-21.57,9.42-29,9.42-9.43,17.37-33.24,52.59-37.95,75.16-.5,2.23-2,3.47-4.22,1.24-7.19-7.44-7.19-18.85-.5-31.5,5.71-10.91,22.33-34.23,31.5-47.38-14.13-9.17,7.44-38.44,16.62-38.69,7.69-.25,5.71,14.14-.49,29.77C883.8,148.36,892.24,144.39,901.41,138Z" transform="translate(-17.85 -12.58)" fill="#2a4858"></path><path d="M950.77,224.51c20.58,1,38.69-18.85,49.35-35.22,1.25-2,3.23-2,4.22.25,1,2,.25,8.93-4.22,15.37-10.41,15.13-29.51,26.54-48.61,26.79-31.5.5-42.41-30.51-26.29-62.5s41.42-44.9,53.82-37.7c6.2,3.72,10.67,7.44,14.64,12.89,4.46,6,2.48,21.09-7.94,33.74C973.58,193,957,199.46,939.61,185.32,931.67,208.14,937.62,223.76,950.77,224.51Zm20.58-57c7.94-10.42,13.4-23.31,9.92-26-5.2-4.22-25.79,10.66-37.45,34.23-.74,1.48-1.49,3-2,4.21C954,187.55,964.16,176.89,971.35,167.46Z" transform="translate(-17.85 -12.58)" fill="#2a4858"></path><path d="M1033.11,144.39c1.24-9.67,3.72-14.38,8.93-19.09,5.46-5,11.16-6,13.39-3.72,2.49,2.48,1.24,5.2-2,10.91-1,1.49-1.74,3-2.73,4.71-1.73,22.82,3,42.17,2.23,59.28-.49,9.67-2.23,20.09-11.16,26,16.62-6.2,27-21.08,33.24-34.47,1.24-2.73,3.72-2,4.71,0,1,2.23.75,8.68-3.47,16.37a52.26,52.26,0,0,1-43.9,27.28c-14.39.5-28.28-3.22-36.71-18.6-5.95-11.16-5.21-27.53,3.22-34.48,3-2.48,5-1.49,5.21,2.48.25,2,.25,4,.5,6C1014.76,173.17,1025.92,157,1033.11,144.39Zm-26.29,56.06c3.72,14.39,10.91,24.55,19.1,22.07,11.41-3.47,7.69-42.41,6.7-62.25C1025.42,173.41,1016.25,187.06,1006.82,200.45Z" transform="translate(-17.85 -12.58)" fill="#2a4858"></path><path d="M1132.07,231.7c-20.83,0-26-15.13-18.6-36.71,8.18-24.06,29.76-49.85,25.79-52.08-3.47-2-30.5,14.88-44.89,38.44-8.93,14.64-18.11,32-24.06,47.13-1,2.23-2.73,2.73-4.22,1-4-4.47-6.2-11.41-1-26.29,8.68-24.8,60.28-112.11,80.36-137.16,2.24-3,4.72-2.73,6,.24,3.22,7.2,2.48,19.6-7,35.23-6,9.92-19.09,30-29.76,46.63,10.17-9.93,23.07-18.11,29.76-17.37,8.44,1,16.12,13.4,9.68,26.05-5.46,10.91-17.37,29-23.07,41.91-6.2,14.39-5,26,4.22,25.55,10.16-.5,23.81-18.35,31.5-34.23,1-2.23,3.47-2.23,4.46-.25,1.24,2.73,1.24,7.94-2.48,15.38C1161.83,219.3,1146.71,231.7,1132.07,231.7Z" transform="translate(-17.85 -12.58)" fill="#2a4858"></path></g><g><path d="M501.22,356h-19v18.25h-1.37v-37.1h23v1.37H482.21v16.05h19Z" transform="translate(-17.85 -12.58)" fill="#2a4858"></path><path d="M526.7,347.7l-1.79-.15a8.15,8.15,0,0,0-5.88,2.28,11.36,11.36,0,0,0-3.11,6.38v18.05h-1.38V346.69h1.38v5.73a10.19,10.19,0,0,1,3.36-4.56,9.13,9.13,0,0,1,5.63-1.68,5.49,5.49,0,0,1,1.94.28Z" transform="translate(-17.85 -12.58)" fill="#2a4858"></path><path d="M555.69,374.26V369.8a9,9,0,0,1-3.57,3.63,11.87,11.87,0,0,1-5.94,1.34c-3,0-5.26-.88-6.76-2.64s-2.27-4.32-2.31-7.68V346.69h1.38V364.5c0,2.92.7,5.13,2,6.63a7,7,0,0,0,5.65,2.26,10.37,10.37,0,0,0,6.42-1.86,8.42,8.42,0,0,0,3.14-5.45V346.69h1.4v27.57Z" transform="translate(-17.85 -12.58)" fill="#2a4858"></path><path d="M574.08,339.24v7.45h6.27v1.37h-6.27v19.59a7.79,7.79,0,0,0,1,4.34,3.58,3.58,0,0,0,3.19,1.4,20.26,20.26,0,0,0,2.73-.23l.23,1.3a9.49,9.49,0,0,1-2.88.31c-2,0-3.44-.56-4.31-1.68s-1.3-2.86-1.32-5.26V348.06h-5.1v-1.37h5.1v-7.45Z" transform="translate(-17.85 -12.58)" fill="#2a4858"></path><path d="M610.54,374.26a19.21,19.21,0,0,1-.51-5.05,11,11,0,0,1-4.46,4.1,13.8,13.8,0,0,1-6.4,1.46,8.94,8.94,0,0,1-6.15-2.08,7.25,7.25,0,0,1,1.1-11.49,16.44,16.44,0,0,1,9.11-2.33H610v-4a6.8,6.8,0,0,0-2.18-5.38,9.18,9.18,0,0,0-6.23-1.91,10,10,0,0,0-6.29,1.94,5.85,5.85,0,0,0-2.53,4.79l-1.37,0a7.06,7.06,0,0,1,3-5.71,11.31,11.31,0,0,1,7.24-2.34,10.56,10.56,0,0,1,7.08,2.23,8,8,0,0,1,2.71,6.28v13.17c0,3,.23,5.08.71,6.17v.23Zm-11.37-.87a12.43,12.43,0,0,0,6.67-1.73,10.73,10.73,0,0,0,4.19-4.87v-6.55h-6.37q-5.91,0-9,2.35a5.73,5.73,0,0,0-2.54,4.76,5.48,5.48,0,0,0,2,4.28A7.47,7.47,0,0,0,599.17,373.39Z" transform="translate(-17.85 -12.58)" fill="#2a4858"></path><path d="M642.49,367.5q0-5-8.56-6.83c-3.44-.73-5.82-1.66-7.16-2.81a5.87,5.87,0,0,1-2-4.73,6.05,6.05,0,0,1,2.56-5,10.66,10.66,0,0,1,6.67-2,11.24,11.24,0,0,1,7.16,2.12,6.94,6.94,0,0,1,2.7,5.75h-1.4a5.72,5.72,0,0,0-2.35-4.64,9.53,9.53,0,0,0-6.11-1.86,9.4,9.4,0,0,0-5.74,1.58,5.11,5.11,0,0,0-1.32,6.87,6.8,6.8,0,0,0,2.57,1.91,25.94,25.94,0,0,0,5.2,1.64,22.33,22.33,0,0,1,5.4,1.86A7.27,7.27,0,0,1,643,364a6.72,6.72,0,0,1,.89,3.58,6.25,6.25,0,0,1-2.67,5.25,11.51,11.51,0,0,1-7,2,12.3,12.3,0,0,1-7.48-2.11,6.45,6.45,0,0,1-2.84-5.41h1.38a5.68,5.68,0,0,0,2.56,4.52,11.1,11.1,0,0,0,6.38,1.62,9.77,9.77,0,0,0,6-1.72A5.08,5.08,0,0,0,642.49,367.5Z" transform="translate(-17.85 -12.58)" fill="#2a4858"></path><path d="M655.58,380.75l-.94-.81a9.92,9.92,0,0,0,2.24-5.48l0-4.26h1.38v3.72A10,10,0,0,1,655.58,380.75Z" transform="translate(-17.85 -12.58)" fill="#2a4858"></path><path d="M697.46,372.06l9.91-25.37h1.48l-10.73,27.57h-1.35l-10.7-27.57h1.48Z" transform="translate(-17.85 -12.58)" fill="#2a4858"></path><path d="M729.41,374.77a11.07,11.07,0,0,1-6.13-1.8,12.31,12.31,0,0,1-4.37-4.93,15.29,15.29,0,0,1-1.58-7v-1.14a16,16,0,0,1,1.53-7,12.1,12.1,0,0,1,4.2-5,10.32,10.32,0,0,1,5.84-1.78,9.64,9.64,0,0,1,7.54,3.28,12.51,12.51,0,0,1,2.93,8.64v1.45H718.71v1.5a13.85,13.85,0,0,0,1.41,6.22,11,11,0,0,0,3.9,4.49,9.59,9.59,0,0,0,5.39,1.63,11,11,0,0,0,4.72-.92,9.77,9.77,0,0,0,3.46-2.85l1,.69Q735.47,374.77,729.41,374.77Zm-.51-27.22a9,9,0,0,0-6.83,3,12.71,12.71,0,0,0-3.29,7.63H738v-.33a11.61,11.61,0,0,0-1.18-5.21,9.14,9.14,0,0,0-3.26-3.75A8.45,8.45,0,0,0,728.9,347.55Z" transform="translate(-17.85 -12.58)" fill="#2a4858"></path><path d="M763.16,347.7l-1.78-.15a8.13,8.13,0,0,0-5.88,2.28,11.36,11.36,0,0,0-3.11,6.38v18.05H751V346.69h1.38v5.73a10.11,10.11,0,0,1,3.36-4.56,9.11,9.11,0,0,1,5.63-1.68,5.53,5.53,0,0,1,1.94.28Z" transform="translate(-17.85 -12.58)" fill="#2a4858"></path><path d="M772.41,360.19q0-6.6,2.78-10.31a9,9,0,0,1,7.62-3.7,10.58,10.58,0,0,1,5.49,1.4,10.26,10.26,0,0,1,3.86,4.18V335.12h1.37v39.14h-1.37v-4.41a9.68,9.68,0,0,1-3.85,3.63,11.72,11.72,0,0,1-5.56,1.29,8.87,8.87,0,0,1-7.56-3.8q-2.78-3.8-2.78-10.42Zm1.43.54q0,5.85,2.32,9.26a7.47,7.47,0,0,0,6.57,3.4,10.75,10.75,0,0,0,5.83-1.52,9,9,0,0,0,3.6-4.44V354.51q-2.37-7-9.38-7a7.6,7.6,0,0,0-6.59,3.34C774.62,353.12,773.84,356.39,773.84,360.73Z" transform="translate(-17.85 -12.58)" fill="#2a4858"></path><path d="M825.94,374.26V369.8a9,9,0,0,1-3.57,3.63,11.85,11.85,0,0,1-5.93,1.34q-4.52,0-6.77-2.64t-2.31-7.68V346.69h1.38V364.5c0,2.92.7,5.13,2,6.63a7,7,0,0,0,5.65,2.26,10.42,10.42,0,0,0,6.43-1.86,8.45,8.45,0,0,0,3.13-5.45V346.69h1.4v27.57Z" transform="translate(-17.85 -12.58)" fill="#2a4858"></path><path d="M853.4,347.7l-1.78-.15a8.17,8.17,0,0,0-5.89,2.28,11.42,11.42,0,0,0-3.11,6.38v18.05h-1.37V346.69h1.37v5.73a10.13,10.13,0,0,1,3.37-4.56,9.11,9.11,0,0,1,5.63-1.68,5.53,5.53,0,0,1,1.94.28Z" transform="translate(-17.85 -12.58)" fill="#2a4858"></path><path d="M880.71,374.26a19.21,19.21,0,0,1-.51-5.05,11,11,0,0,1-4.46,4.1,13.73,13.73,0,0,1-6.39,1.46,8.91,8.91,0,0,1-6.15-2.08,6.91,6.91,0,0,1-2.34-5.42,7,7,0,0,1,3.43-6.07,16.46,16.46,0,0,1,9.11-2.33h6.8v-4a6.79,6.79,0,0,0-2.17-5.38,9.19,9.19,0,0,0-6.23-1.91,10,10,0,0,0-6.3,1.94,5.84,5.84,0,0,0-2.52,4.79l-1.38,0a7.07,7.07,0,0,1,3-5.71,11.29,11.29,0,0,1,7.24-2.34,10.56,10.56,0,0,1,7.08,2.23,8,8,0,0,1,2.7,6.28v13.17a17.9,17.9,0,0,0,.71,6.17v.23Zm-11.36-.87a12.42,12.42,0,0,0,6.66-1.73,10.73,10.73,0,0,0,4.19-4.87v-6.55h-6.37q-5.91,0-9,2.35a5.74,5.74,0,0,0-2.55,4.76,5.48,5.48,0,0,0,2,4.28A7.48,7.48,0,0,0,869.35,373.39Z" transform="translate(-17.85 -12.58)" fill="#2a4858"></path><path d="M912.66,367.5q0-5-8.56-6.83c-3.43-.73-5.82-1.66-7.16-2.81a5.9,5.9,0,0,1-2-4.73,6,6,0,0,1,2.56-5,10.63,10.63,0,0,1,6.66-2,11.24,11.24,0,0,1,7.16,2.12,6.94,6.94,0,0,1,2.7,5.75h-1.4a5.71,5.71,0,0,0-2.34-4.64,9.56,9.56,0,0,0-6.12-1.86,9.39,9.39,0,0,0-5.73,1.58,4.76,4.76,0,0,0-2.12,3.95,4.84,4.84,0,0,0,.79,2.92,6.93,6.93,0,0,0,2.58,1.91,26,26,0,0,0,5.19,1.64,22.59,22.59,0,0,1,5.41,1.86,7.41,7.41,0,0,1,2.88,2.54,6.81,6.81,0,0,1,.89,3.58,6.23,6.23,0,0,1-2.68,5.25,11.49,11.49,0,0,1-7,2,12.25,12.25,0,0,1-7.47-2.11,6.43,6.43,0,0,1-2.84-5.41h1.37a5.7,5.7,0,0,0,2.56,4.52,11.1,11.1,0,0,0,6.38,1.62,9.78,9.78,0,0,0,6-1.72A5.09,5.09,0,0,0,912.66,367.5Z" transform="translate(-17.85 -12.58)" fill="#2a4858"></path><path d="M953,372.12l.18-.51,9.53-24.92h1.52l-12.33,32.36-.61,1.53c-1.32,3.21-3.52,4.81-6.57,4.81a5,5,0,0,1-2-.28l0-1.32a7.08,7.08,0,0,0,1.86.22,5.25,5.25,0,0,0,3.6-1.25,10.08,10.08,0,0,0,2.47-4.11l1.68-4.55-11-27.41h1.5Z" transform="translate(-17.85 -12.58)" fill="#2a4858"></path><path d="M1012.12,374.26h-1.38V355.75q0-4.15-1.82-6.17c-1.2-1.35-3.1-2-5.72-2a8.76,8.76,0,0,0-7.41,4,13.28,13.28,0,0,0-2.27,5.29v17.42h-1.4V346.69h1.4v6.52a11.64,11.64,0,0,1,4-5.2,10.6,10.6,0,0,1,11.43-.31,7.56,7.56,0,0,1,2.89,5,10.05,10.05,0,0,1,4-4.75,11.17,11.17,0,0,1,6.17-1.77c3,0,5.19.84,6.64,2.52s2.18,4.2,2.2,7.57v18h-1.37V356.39c0-3-.61-5.26-1.83-6.71s-3.12-2.16-5.72-2.13a9.6,9.6,0,0,0-7.95,4,8.44,8.44,0,0,0-1.83,4.38Z" transform="translate(-17.85 -12.58)" fill="#2a4858"></path><path d="M1062.21,374.26a19.21,19.21,0,0,1-.51-5.05,11,11,0,0,1-4.46,4.1,13.78,13.78,0,0,1-6.4,1.46,8.94,8.94,0,0,1-6.15-2.08,7.25,7.25,0,0,1,1.1-11.49,16.44,16.44,0,0,1,9.11-2.33h6.8v-4a6.8,6.8,0,0,0-2.18-5.38,9.18,9.18,0,0,0-6.23-1.91,10,10,0,0,0-6.29,1.94,5.85,5.85,0,0,0-2.53,4.79l-1.37,0a7.06,7.06,0,0,1,3-5.71,11.33,11.33,0,0,1,7.24-2.34,10.54,10.54,0,0,1,7.08,2.23,8,8,0,0,1,2.71,6.28v13.17c0,3,.23,5.08.71,6.17v.23Zm-11.37-.87a12.43,12.43,0,0,0,6.67-1.73,10.73,10.73,0,0,0,4.19-4.87v-6.55h-6.37q-5.91,0-9,2.35a5.76,5.76,0,0,0-2.54,4.76,5.48,5.48,0,0,0,2,4.28A7.47,7.47,0,0,0,1050.84,373.39Z" transform="translate(-17.85 -12.58)" fill="#2a4858"></path><path d="M1094.16,367.5q0-5-8.56-6.83c-3.44-.73-5.82-1.66-7.16-2.81a5.87,5.87,0,0,1-2-4.73,6.05,6.05,0,0,1,2.56-5,10.66,10.66,0,0,1,6.67-2,11.24,11.24,0,0,1,7.16,2.12,6.94,6.94,0,0,1,2.7,5.75h-1.4a5.69,5.69,0,0,0-2.35-4.64,9.53,9.53,0,0,0-6.11-1.86,9.4,9.4,0,0,0-5.74,1.58,5.11,5.11,0,0,0-1.32,6.87,6.88,6.88,0,0,0,2.57,1.91,25.94,25.94,0,0,0,5.2,1.64,22.33,22.33,0,0,1,5.4,1.86,7.27,7.27,0,0,1,2.88,2.54,6.72,6.72,0,0,1,.89,3.58,6.25,6.25,0,0,1-2.67,5.25,11.51,11.51,0,0,1-7,2,12.3,12.3,0,0,1-7.48-2.11,6.45,6.45,0,0,1-2.84-5.41h1.38a5.68,5.68,0,0,0,2.56,4.52,11.1,11.1,0,0,0,6.38,1.62,9.77,9.77,0,0,0,6-1.72A5.08,5.08,0,0,0,1094.16,367.5Z" transform="translate(-17.85 -12.58)" fill="#2a4858"></path></g></g><g id="Grupo_645" data-name="Grupo 645"><path id="Trazado_1432" data-name="Trazado 1432" d="M386.64,62.48a65.25,65.25,0,0,0-2.4-37,100,100,0,0,0-5.76-11.53,63.19,63.19,0,0,0-28.3.57c-.92.25-1.83.51-2.73.8s-1.79.36-2.67.59A61.55,61.55,0,0,0,317,31.5a58.1,58.1,0,0,0-12.53,40.14A73.51,73.51,0,0,1,301.59,54a88.79,88.79,0,0,0-3.67,63.83c3.83,12,18.7,54.34,21.95,71.44-14.7-48.32-44.65-71.73-97.21-77.6-33-3.69-69.73,11.61-92.44,32.89a84.05,84.05,0,0,1,24.06-3.22A86.45,86.45,0,0,0,104.45,179a125.64,125.64,0,0,0-12.26,38.64,87.73,87.73,0,0,1,9-10.53,90.27,90.27,0,0,0-10.56,31.74c0,.43-.07.87-.09,1.31a120.64,120.64,0,0,0,6.78,45.54,106.62,106.62,0,0,0,16.87,4.09A78,78,0,0,0,164,277.06,81.42,81.42,0,0,1,151,289.26a102.12,102.12,0,0,0,11.43-2.86c.39-.16.76-.3,1.14-.48a88.86,88.86,0,0,0,44.93-47.68,92.75,92.75,0,0,1-6,24.06,118.07,118.07,0,0,0,29.94-67.82,123.09,123.09,0,0,1,1.76,23.08,120.52,120.52,0,0,0,7.58-37.3c.43-9.81-.06-24.77-5.1-36.4-61.74-14.44-102,45.83-113.74,81.26C135,183.33,167.1,131.87,227.8,130.75c39.41-.73,64,30.64,75,59.2,6.8,17.67,25.64,84.75-41.88,130.69-39.08,26.6-89,36.1-135.64,18.66C86.58,325.08,56,293.87,41.92,254.13c-.48-1.52-1-3-1.41-4.57C18.37,171,60.31,88.33,135.65,62.19c-2.05.53-4.1,1-6.15,1.66-84.43,27.81-131,120.83-104,207.77S142.88,406.48,227.31,378.67c45.39-14.94,82-49.88,99.87-95.35,17.42-44.64,8.56-87-7.3-127.68-10.06-25.86-20.6-69.92,34.3-112.53-16.89,15.69-45.9,46.21-33.3,89.19a117.72,117.72,0,0,0,23.94-3,58.65,58.65,0,0,0,20.57-9.85,61.16,61.16,0,0,1-14,1.5,60.23,60.23,0,0,0,34.21-29.49,45.25,45.25,0,0,1-13.07,7.27,54,54,0,0,0,19.27-37.69c0-.28,0-.56.06-.85-.06-2.81-.26-5.68-.59-8.55A51.91,51.91,0,0,1,386.64,62.48Z" transform="translate(-17.85 -12.58)" fill="url(#Degradado_sin_nombre_2)"></path></g></svg>